Coordinates
version=1
nRows=8
nColumns=34
inDegrees=yes

Units are S.I. units (second, meters, Newtons, ...)
If the header above contains a line with 'inDegrees', this indicates whether rotational values are in degrees (yes) or radians (no).

endheader
time	pelvis_tilt	pelvis_list	pelvis_rotation	pelvis_tx	pelvis_ty	pelvis_tz	hip_flexion_r	hip_adduction_r	hip_rotation_r	knee_angle_r	ankle_angle_r	subtalar_angle_r	mtp_angle_r	hip_flexion_l	hip_adduction_l	hip_rotation_l	knee_angle_l	ankle_angle_l	subtalar_angle_l	mtp_angle_l	lumbar_extension	lumbar_bending	lumbar_rotation	arm_flex_r	arm_add_r	arm_rot_r	elbow_flex_r	pro_sup_r	arm_flex_l	arm_add_l	arm_rot_l	elbow_flex_l	pro_sup_l
      9.40000000	      0.10167084	     -6.55442050	      7.76562322	      0.17149615	      0.31532292	     -0.12776883	    119.21404708	    -37.59116134	     -8.99716933	     97.82501059	     28.83850376	     20.71271943	      0.00000000	    119.99999986	      1.51890612	    -14.77140276	     86.67345011	     -1.57872469	    -15.49395096	      0.00000000	    -53.95653035	     -3.81029688	     -9.03828274	    118.30434063	      3.45424150	     26.14136862	     58.01344378	     81.51661124	     66.78328369	    -14.12124478	     17.82848622	     44.87046039	     60.12041749
      9.41666670	     -1.01506564	     -6.43964938	      8.14107782	      0.15671662	      0.32312758	     -0.13148600	    119.99999986	    -37.36641224	     -7.83895158	     97.17930627	     27.38276522	     20.54062004	      0.00000000	    119.99999986	      0.48948414	    -16.40986646	     85.73061411	     -1.84772336	    -14.44095948	      0.00000000	    -53.19616331	     -3.44014549	     -8.17538949	    117.03899880	      4.06677795	     25.58021726	     55.71216023	     80.52507462	     63.41245377	    -13.84552539	     15.79322223	     47.61895929	     59.86555722
      9.43333330	     -0.36474872	     -7.06126624	      8.63353660	      0.15866068	      0.31733178	     -0.13616983	    119.99999986	    -38.40609487	     -8.04086959	     99.30722896	     28.33076466	     22.20248149	      0.00000000	    119.99999986	      1.11526121	    -16.42445551	     85.80251424	     -3.44130641	    -15.78334666	      0.00000000	    -53.20375120	     -2.07402537	     -5.78241672	    115.91897425	      3.84855503	     26.09378332	     53.47580750	     79.66088885	     60.70852403	    -12.09202257	     14.53147225	     48.15590262	     59.63055029
      9.45000000	     -1.16551536	     -7.13352889	      8.09576447	      0.14983615	      0.32609505	     -0.13206400	    119.99999986	    -36.96493901	     -7.74347122	    100.03853182	     27.01225857	     21.94576996	      0.00000000	    119.99999986	      0.36510283	    -16.51049374	     84.57674364	     -3.97756008	    -14.08063746	      0.00000000	    -52.14318051	     -2.23451473	     -3.76642112	    114.19818801	      3.70672285	     26.36814452	     52.07590558	     79.19477312	     57.85090343	    -10.97428151	     14.23872584	     48.34766415	     59.52996866
      9.46666670	     -2.20378762	     -7.42483887	      7.87669054	      0.13511814	      0.32701832	     -0.13043594	    119.99999986	    -35.06862755	     -7.75654548	     98.25433109	     25.73705036	     22.04341058	      0.00000000	    119.99999986	      0.68386773	    -15.85183576	     81.97016165	     -6.00638148	    -14.30230684	      0.00000000	    -50.44146783	     -2.18594773	     -2.07251478	    111.72396558	      3.45644113	     26.51900475	     50.63783946	     78.66763655	     55.02004506	    -10.11169634	     14.54768134	     47.74886765	     59.50467822
      9.48333330	     -0.83692926	     -6.36350797	      8.92790604	      0.13334477	      0.32299310	     -0.13390441	    119.99999986	    -34.42180773	     -5.59142416	     98.00687925	     24.99271635	     21.78138033	      0.00000000	    118.58706956	      2.31829993	    -16.26573224	     81.14089662	     -8.32223112	    -16.22360591	      0.00000000	    -51.16612413	     -2.03568173	     -1.21050835	    110.51067029	      2.57635671	     27.80863872	     48.11731303	     78.02312821	     52.81181315	     -9.21088787	     16.32125514	     46.72046948	     59.67439036
      9.50000000	      0.80887910	     -5.36156634	      9.62620415	      0.13210613	      0.32744534	     -0.13626999	    118.97395790	    -33.48090330	     -3.75707460	     97.00223400	     23.09704993	     21.48873851	      0.00000000	    116.78765369	      3.42830564	    -16.55063596	     80.55083970	     -8.64302415	    -17.04288817	      0.00000000	    -52.15394210	     -1.95746457	     -0.21533184	    109.09712091	      1.73257436	     28.90315892	     46.63067581	     77.81267314	     49.79611455	     -8.49424981	     17.53780161	     46.66930909	     59.78250213
      9.51666670	      3.02742211	     -5.28343424	     10.11185647	      0.11402679	      0.32296232	     -0.14097261	    116.77502304	    -32.84675455	     -3.40872617	     95.57643111	     21.97873636	     21.19720409	      0.00000000	    114.64754852	      5.24286863	    -15.57302353	     79.13653167	    -10.23260188	    -19.32187541	      0.00000000	    -53.36946787	     -0.75933492	      2.31081894	    109.08302564	      0.48012600	     33.11276232	     43.05600996	     77.10043410	     47.44767108	     -7.45051779	     19.83119559	     46.34698052	     60.01400538
